PathFileType	4	(X/Y/Z)	Patient4_TMGait_0pt7_01_right_07.trc.trc
DataRate	CameraRate	NumFrames	NumMarkers	Units	OrigDataRate	OrigDataStartFrame	OrigNumFrames
89.171974522293	89.171974522293	4	33	mm	89.171974522293	1	       141
Frame#	Time	Sacral			L.Shoulder			Chest			R.Shoulder			Neck			R.ASIS			L.ASIS			R.Thigh.Superior			R.Thigh.Lateral			R.Thigh.Inferior			R.Patella			L.Thigh.Superior			L.Thigh.Lateral			L.Thigh.Inferior			L.Patella			L.Shank.Superior			L.Shank.Lateral			L.Shank.Inferior			R.Shank.Superior			R.Shank.Lateral			R.Shank.Inferior			R.Heel			R.Midfoot.Superior			R.Midfoot.Lateral			R.Toe			L.Heel			L.Midfoot.Lateral			L.Midfoot.Superior			L.Toe			L.Elbow			L.Wrist			R.Elbow			R.Wrist			
		X1	Y1	Z1	X2	Y2	Z2	X3	Y3	Z3	X4	Y4	Z4	X5	Y5	Z5	X6	Y6	Z6	X7	Y7	Z7	X8	Y8	Z8	X9	Y9	Z9	X10	Y10	Z10	X11	Y11	Z11	X12	Y12	Z12	X13	Y13	Z13	X14	Y14	Z14	X15	Y15	Z15	X16	Y16	Z16	X17	Y17	Z17	X18	Y18	Z18	X19	Y19	Z19	X20	Y20	Z20	X21	Y21	Z21	X22	Y22	Z22	X23	Y23	Z23	X24	Y24	Z24	X25	Y25	Z25	X26	Y26	Z26	X27	Y27	Z27	X28	Y28	Z28	X29	Y29	Z29	X30	Y30	Z30	X31	Y31	Z31	X32	Y32	Z32	X33	Y33	Z33	

1	7.530000000000	757.127508623661	1013.653908273920	464.033340650763	973.638082119290	1432.490767544514	283.310598727648	1062.628021617408	1359.658589857766	451.912051589986	975.187885430306	1444.751844402768	619.716973903245	970.286270620887	1495.295661151544	438.569015587581	976.117596386523	951.053415713026	592.574607199838	979.138070585167	961.961762447688	318.912393948338	1074.463966153529	804.036501462457	566.132536856762	1053.313169400088	681.637584867103	644.124595807080	1150.809122706323	655.228263797296	568.395506953774	1185.950997949734	542.763646363067	592.233551686861	1023.113088932101	752.357287731863	352.934329361711	935.675344102604	638.974439993627	289.930671699419	1011.683825785703	559.984585806986	360.880048525054	1008.733030929345	491.368302865543	371.962209303704	985.684410671688	420.151660172762	361.333512773460	902.470310712769	303.400447596198	307.144079696061	951.227142094906	194.619192138531	383.050880707780	1112.777084928863	461.171944621594	596.200763604553	990.521459985475	416.099333572412	651.158651522152	982.668734474218	306.792652450089	601.559497480906	786.638079243979	241.629177648491	565.010275347217	954.060608037586	181.979182033366	613.361347944608	842.086465171811	179.616756209084	639.510998647949	1015.653279380792	66.044357807107	636.998937937496	823.269360748062	37.354045894885	420.674335254389	899.415352938064	35.548517570101	341.364765767559	981.044810198209	96.610365864898	371.254016952831	1110.675122359221	46.382738483559	345.766572389626	943.721650324379	1086.342531348923	158.535820322251	1056.066864634701	849.954402772736	165.947915668337	924.171511514441	1098.302412692330	735.456874490482	1119.767595791367	925.988907075935	726.816479590873	
2	7.541214285714	756.020216744107	1013.684928241596	463.257116220057	974.598252831100	1433.014284100556	283.666933248488	1062.528135626981	1359.431249282183	452.499983215545	973.929922845343	1444.086248943709	619.545868254157	970.401879129073	1495.278016304347	438.964199244638	975.154028479478	951.497942976020	592.658637226642	978.195650977281	961.872179404260	318.627039805595	1074.787122843031	807.029940366548	565.989548042278	1055.445811075173	684.487669429833	644.256229854342	1152.899890144234	659.246421405371	568.203078145930	1190.066929067876	548.516208210455	592.407465255538	1020.346077970970	751.482098935715	352.996612287307	931.756079587487	638.806775732367	289.519882359420	1006.619887302276	559.053547966709	360.604860266037	1003.031644635242	490.634842400441	371.664228422783	979.664546872478	419.581159322616	361.135088322874	895.790143878910	303.294722618272	307.003480205694	943.547482804488	194.264991322536	383.033464812343	1121.135853110055	464.677716335955	596.904141761184	1002.481717257882	413.189626094598	652.726674439774	1000.468248691558	303.878425938868	603.425640359567	808.807159868969	228.144705872465	568.304421563760	978.688750993744	177.473745522119	615.110180568604	867.774717018516	169.744210697048	642.613703481216	1046.602671263896	66.231530960291	639.646982550905	815.053518564382	37.373110628602	420.676259759878	891.174413917393	35.552572147312	341.385238070285	972.906330955193	96.526818783987	371.290573651391	1102.522600460849	46.021865067168	345.751351477736	947.392116913152	1087.496559843627	156.942174708058	1074.935693427479	860.922754390155	163.900209931665	917.179335031553	1098.307549637123	735.304580772964	1093.002571605128	909.996520362557	730.793274659198	
3	7.552428571429	754.954305478530	1013.727898248482	462.508562640224	975.545451703621	1433.518758765934	284.034892205793	1062.445332298960	1359.193481804443	453.085872571644	972.762587095492	1443.431339997813	619.434040555807	970.532542461894	1495.251552161568	439.372596704487	974.201595015548	951.903748568862	592.726985813021	977.241044486690	961.747183946853	318.355643030269	1075.033583338358	809.876058646043	565.845026457593	1057.395741668947	687.166824688627	644.363635156536	1154.818823945965	663.023630449744	568.043701522187	1193.935077184103	554.041644166239	592.606662401456	1017.617370437124	750.610107031707	353.061692284913	927.896516499801	638.640334903972	289.122632090068	1001.627975318175	558.133267454123	360.338202560318	997.409757781657	489.913607445072	371.375298827109	973.725259739924	419.018978927482	360.945253678638	889.200571604956	303.190989817066	306.867132388207	935.975441906520	193.914180778198	383.021555060937	1129.237837624116	468.033365566565	597.610206800321	1014.310023074742	410.188876900386	654.359206736216	1018.114865320925	300.937807515437	605.334737093352	830.968176904184	214.695564830094	571.714961663226	1003.240553400055	173.095371664480	616.980519248156	893.435046716160	159.945324820826	645.786190668002	1077.391477647844	66.537393263563	642.256557121210	806.944576915567	37.393338671764	420.672112946904	883.040105595702	35.555721050266	341.404375711430	964.871531098782	96.443732845258	371.328047314297	1094.474287417461	45.666039553344	345.736205190432	950.975379260634	1088.623884005646	155.416587046384	1093.458261065274	871.965912389224	161.949891384222	910.372665928473	1098.309322662095	735.168281546757	1066.488845666461	894.633291489321	734.659977437230	
4	7.563642857143	753.986141864926	1013.778217694451	461.827390685313	976.457126239131	1433.987620036202	284.442382618401	1062.398056851126	1358.932110577866	453.676593572271	971.774895282523	1442.783305816861	619.445292098725	970.692435331901	1495.202541315975	439.822830711756	973.302679140599	952.225217609683	592.772562580495	976.286380568478	961.561497553274	318.110584126664	1075.121617287394	812.361437976158	565.713559281089	1058.943252538131	689.462432437461	644.459586200304	1156.329665606277	666.251299704082	567.954497329041	1197.245036285090	559.087310150583	592.847785232119	1014.950155615914	749.731963778192	353.135709025994	924.120833875956	638.470722435057	288.754349272107	996.730801622350	557.222405888636	360.089947492596	991.888041973808	489.203047519362	371.105914301534	967.881676773710	418.462850980275	360.775558998775	882.717043232973	303.090524883686	306.742777166163	928.531058345468	193.566343303371	383.022339588062	1136.812394196200	471.071414474806	598.341107913116	1025.914430103380	406.970947713021	656.136487319622	1035.547349819874	297.947950145156	607.343313207156	853.320196965866	201.256701914601	575.355033018318	1027.774824366584	168.988516230674	619.076724028560	919.234396473048	150.292359552425	649.107642022111	1108.026687543023	67.209085591685	644.828625665750	798.949917359169	37.418357702516	420.658039584559	875.019918569858	35.558737650180	341.422724042721	956.947725848845	96.360969585860	371.368029158838	1086.535422803945	45.316373302818	345.721246943025	954.427840971836	1089.711572408191	154.026145519484	1111.374819460403	883.341307078493	160.214745989722	903.828737104824	1098.344245054314	735.074413428731	1040.313010341448	880.520623142908	738.292912530154	
